<?xml version="1.0" standalone="no"?>
<!DOCTYPE svg PUBLIC "-//W3C//DTD SVG 20010904//EN"
 "http://www.w3.org/TR/2001/REC-SVG-20010904/DTD/svg10.dtd">
<svg version="1.0" xmlns="http://www.w3.org/2000/svg"
 width="180.000000pt" height="180.000000pt" viewBox="0 0 180.000000 180.000000"
 preserveAspectRatio="xMidYMid meet">
<metadata>
Created by potrace 1.14, written by Peter Selinger 2001-2017
</metadata>
<g transform="translate(0.000000,180.000000) scale(0.100000,-0.100000)"
fill="#000000" stroke="none">
<path d="M850 1777 c-5 -12 -23 -94 -39 -182 -27 -141 -29 -161 -16 -175 8 -9
15 -20 15 -23 0 -4 -45 -7 -100 -7 -100 0 -100 0 -199 -49 l-99 -50 5 -558 c3
-307 9 -562 13 -567 5 -5 65 -43 134 -85 l125 -76 215 5 215 5 96 83 c76 67
94 88 91 105 -3 12 -8 250 -11 529 l-7 507 37 111 37 111 -48 82 c-95 165 -79
150 -206 185 -62 18 -144 41 -181 51 l-68 20 -9 -22z m343 -110 c8 -3 40 -51
72 -107 l58 -102 -33 -104 c-21 -64 -40 -106 -49 -108 -43 -12 -223 -37 -235
-33 -7 3 -52 56 -101 118 l-88 114 28 145 c15 80 30 150 32 156 3 7 56 -4 153
-31 82 -24 155 -45 163 -48z m-373 -321 c0 -33 -11 -46 -30 -34 -15 9 -25 9
-44 -2 -24 -12 -28 -11 -49 8 -13 12 -30 22 -39 22 -18 0 -43 -27 -52 -57 -9
-30 -24 -32 -81 -13 l-50 17 70 36 c67 34 75 36 173 37 82 0 102 -3 102 -14z
m62 -40 c17 -23 17 -24 -7 -28 -26 -5 -35 6 -27 35 6 23 14 21 34 -7z m-200
-21 c11 -14 24 -23 29 -20 21 13 7 -14 -14 -28 -19 -12 -77 -13 -77 -1 0 8 34
74 38 74 2 0 13 -11 24 -25z m118 -37 c0 -4 20 -8 45 -8 43 0 45 -1 35 -20 -9
-17 -21 -20 -85 -20 -43 0 -75 4 -75 10 0 6 5 10 11 10 5 0 17 17 26 37 14 35
16 36 29 18 8 -10 14 -22 14 -27z m-131 -63 c9 -4 -22 -30 -83 -71 l-99 -66
32 -31 c34 -34 28 -35 97 10 19 12 22 12 27 -1 4 -11 -9 -20 -51 -34 -54 -18
-57 -20 -57 -53 l0 -34 73 2 c45 1 72 -2 72 -9 0 -5 -10 -28 -22 -50 l-23 -40
24 -19 c32 -26 46 -24 75 14 18 23 26 27 26 15 0 -10 -13 -31 -30 -48 -34 -34
-38 -55 -14 -68 15 -8 15 -11 -5 -31 -11 -11 -25 -21 -31 -21 -14 0 -13 -17 1
-22 20 -7 -6 -42 -45 -63 -34 -19 -37 -19 -65 -2 -55 33 -101 13 -101 -44 0
-42 48 -89 90 -89 26 0 33 -6 46 -35 7 -19 14 -48 14 -64 l0 -30 -26 24 c-45
42 -114 23 -114 -30 0 -22 62 -85 84 -85 16 0 42 29 53 57 8 21 9 21 42 4 l33
-18 -26 -27 c-14 -16 -27 -36 -30 -45 -14 -54 -19 -77 -17 -84 2 -11 -1 -10
-87 42 l-72 43 0 78 c0 42 -3 138 -7 213 l-6 136 29 11 c40 16 64 39 64 63 0
12 10 31 21 43 17 18 20 30 15 57 -4 19 -13 40 -21 47 -8 7 -15 21 -15 30 0
25 -48 62 -72 55 -17 -6 -18 3 -18 169 l0 175 103 -35 c56 -19 108 -36 116
-39z m279 35 c11 -18 10 -20 -12 -20 -19 0 -23 4 -19 20 3 11 8 20 12 20 3 0
12 -9 19 -20z m306 -87 c3 -42 6 -145 6 -230 0 -137 -2 -153 -17 -153 -20 0
-63 -38 -63 -56 0 -6 -11 -19 -25 -28 -37 -24 -33 -62 13 -113 29 -34 44 -43
70 -43 31 0 32 -2 32 -40 0 -30 -3 -38 -14 -34 -22 8 -57 -32 -55 -64 1 -15
-2 -35 -5 -44 -10 -22 29 -62 55 -55 16 4 19 0 19 -37 0 -35 -6 -48 -35 -76
-39 -38 -33 -40 -116 41 -51 49 -70 98 -45 118 26 22 59 119 53 157 -7 42 -48
100 -77 109 -25 8 -27 51 -2 78 16 19 16 20 -7 14 -15 -4 -33 1 -52 15 -17 13
-43 21 -69 21 -48 0 -40 18 11 24 18 2 45 10 61 18 29 14 30 13 50 -20 11 -19
24 -35 29 -35 7 0 134 74 147 85 8 7 -12 77 -23 82 -7 2 -32 -8 -55 -23 -37
-25 -42 -26 -57 -12 -13 14 -13 22 -3 53 11 33 15 36 39 29 47 -13 75 -10 79
9 2 10 14 29 28 42 13 13 24 31 24 39 0 29 -23 66 -42 66 -11 0 -18 7 -18 20
0 12 -12 26 -30 35 -33 17 -50 13 -50 -12 0 -11 -5 -13 -17 -8 -65 27 -70 22
-93 -96 -12 -61 -15 -66 -39 -66 -52 0 -101 -14 -101 -28 0 -15 -26 -20 -54
-9 -24 9 -19 24 7 24 37 0 59 22 55 55 -3 28 -6 30 -55 33 -45 3 -52 6 -57 27
-4 14 -15 29 -27 35 -20 11 -20 11 3 30 22 18 23 18 4 39 l-19 21 154 1 c104
0 187 6 254 19 55 10 105 18 111 19 7 1 14 -29 18 -76z m-734 -279 c3 -10 13
-31 23 -46 23 -33 19 -60 -10 -73 -17 -7 -21 -15 -16 -33 6 -27 -21 -62 -49
-62 -16 0 -18 10 -18 118 0 129 8 152 44 128 11 -7 23 -22 26 -32z m410 -18
c0 -3 -4 -8 -10 -11 -5 -3 -10 -1 -10 4 0 6 5 11 10 11 6 0 10 -2 10 -4z m332
-193 c2 -49 0 -94 -5 -100 -14 -20 -48 -15 -54 6 -3 11 -13 21 -23 24 -11 3
-22 17 -26 33 -6 22 -2 32 17 48 14 12 30 33 37 49 7 16 19 27 31 27 17 0 19
-9 23 -87z m-302 27 c18 -11 17 -11 -47 -37 -46 -19 -52 -20 -58 -5 -13 34 67
67 105 42z m-155 -10 c8 0 19 -9 25 -20 13 -24 4 -45 -13 -32 -7 5 -30 15 -51
22 -37 12 -38 14 -21 27 11 7 26 11 33 8 8 -3 20 -5 27 -5z m190 -42 c-14 -49
-83 -76 -113 -46 -21 21 -13 30 23 24 28 -6 35 -4 35 9 0 9 10 20 23 25 34 14
39 12 32 -12z m-248 -14 c4 -10 13 -14 27 -10 12 3 28 1 36 -4 13 -9 13 -11 0
-20 -37 -24 -90 -5 -90 32 0 22 18 24 27 2z m113 -199 c0 -73 -1 -75 -25 -75
-25 0 -33 17 -51 107 -6 31 -5 32 32 36 22 2 40 4 42 5 1 1 2 -32 2 -73z m78
-2 l3 -73 -31 0 -30 0 0 76 0 75 28 -3 c26 -3 27 -5 30 -75z m66 46 c31 -37
33 -62 6 -89 -37 -37 -48 -26 -52 50 -3 80 6 87 46 39z m-234 -46 c7 -32 14
-61 17 -65 2 -5 -10 -8 -26 -8 l-31 0 0 65 c0 50 3 65 14 65 10 0 19 -20 26
-57z m-60 -14 c0 -52 -2 -60 -16 -55 -9 3 -19 6 -24 6 -4 0 -15 21 -24 47 -18
52 -12 63 37 63 27 0 27 -1 27 -61z m555 -35 c0 -52 -2 -59 -20 -59 -17 0 -20
7 -21 50 0 28 4 56 9 63 20 25 32 5 32 -54z m-685 -42 c16 -13 20 -24 15 -44
-9 -35 -28 -41 -56 -17 -12 10 -26 19 -31 19 -12 0 -10 34 4 48 17 17 42 15
68 -6z m386 -256 c47 1 90 6 97 12 6 5 30 12 52 15 l40 6 -30 -24 c-30 -25
-33 -25 -227 -25 -182 0 -248 8 -248 29 0 3 28 5 63 3 35 -2 79 1 98 6 27 7
38 6 53 -7 14 -12 38 -16 102 -15z"/>
<path d="M1045 1514 c-65 -35 -124 -69 -129 -74 -12 -12 32 -100 50 -100 18 0
263 133 268 146 8 20 -32 94 -51 93 -10 0 -72 -29 -138 -65z"/>
</g>
</svg>
